<svg width="210" height="35" viewBox="0 0 210 35" fill="none" xmlns="http://www.w3.org/2000/svg">
<g clip-path="url(#clip0_287_3116)">
<path d="M94.2168 0H207.872C208.437 0 208.978 0.227787 209.377 0.633252C209.776 1.03872 210 1.58864 210 2.16206V32.8379C210 33.4114 209.776 33.9613 209.377 34.3667C208.978 34.7722 208.437 35 207.872 35H94.2168V0Z" fill="#31363F"/>
<path d="M107.705 26.1922C106.945 26.1924 106.185 26.1428 105.431 26.0437C104.729 25.9568 104.042 25.7717 103.389 25.4936C102.82 25.2587 102.318 24.88 101.933 24.3933C101.549 23.8604 101.358 23.2096 101.391 22.5503V6.59619H105.366V14.2322L104.608 12.9338C104.951 12.5329 105.379 12.2152 105.859 12.0041C106.356 11.7799 106.877 11.6173 107.413 11.52C107.843 11.4396 108.28 11.3936 108.718 11.3824C110.754 11.3824 112.302 12.0059 113.363 13.2529C114.425 14.4999 114.955 16.3209 114.955 18.7158C114.989 19.9204 114.805 21.1211 114.414 22.2587C114.103 23.1419 113.58 23.9323 112.892 24.5583C112.226 25.1356 111.445 25.5598 110.602 25.8016C109.659 26.0712 108.684 26.2027 107.705 26.1922ZM107.651 22.7649C108.319 22.7975 108.982 22.6291 109.557 22.2807C110.029 21.9541 110.387 21.4843 110.58 20.9384C110.796 20.3071 110.9 19.6424 110.889 18.9744C110.922 18.1152 110.784 17.2581 110.483 16.4547C110.264 15.892 109.873 15.4156 109.367 15.0959C108.871 14.8165 108.311 14.6742 107.743 14.6833C107.34 14.6867 106.939 14.7328 106.546 14.8208C106.134 14.9048 105.737 15.0552 105.371 15.2664V21.461C105.363 21.605 105.386 21.7491 105.438 21.8831C105.49 22.0172 105.571 22.1379 105.674 22.2367C105.912 22.4412 106.197 22.5795 106.503 22.6383C106.876 22.7231 107.258 22.7655 107.64 22.7649H107.651Z" fill="white"/>
<path d="M123.965 26.1922C121.644 26.1922 119.897 25.5614 118.724 24.2997C117.55 23.0381 116.964 21.1786 116.964 18.7213C116.964 16.0843 117.559 14.19 118.751 13.0383C119.942 11.8867 121.68 11.3091 123.965 11.3054C125.302 11.2614 126.631 11.5326 127.847 12.0976C128.882 12.6114 129.715 13.4641 130.214 14.5182C130.798 15.8374 131.074 17.2758 131.021 18.7213C131.021 21.1749 130.412 23.0344 129.196 24.2997C127.979 25.5651 126.236 26.1959 123.965 26.1922ZM123.965 22.8914C124.559 22.9154 125.146 22.7458 125.638 22.4072C126.107 22.0503 126.458 21.5573 126.645 20.9934C126.892 20.259 127.007 19.4859 126.987 18.7103C127.017 17.8802 126.901 17.0512 126.645 16.2622C126.467 15.721 126.107 15.2612 125.627 14.9638C125.119 14.6817 124.545 14.543 123.965 14.5622C123.369 14.537 122.777 14.6839 122.259 14.9858C121.799 15.2996 121.457 15.7633 121.29 16.3007C121.059 17.0853 120.955 17.9028 120.982 18.7213C120.982 20.1242 121.22 21.1749 121.702 21.8626C121.961 22.2168 122.305 22.498 122.701 22.6799C123.097 22.8618 123.532 22.9384 123.965 22.9024V22.8914Z" fill="white"/>
<path d="M140.036 26.1922C137.708 26.1922 135.965 25.5651 134.79 24.2997C133.615 23.0344 133.035 21.1749 133.035 18.7213C133.035 16.0843 133.631 14.19 134.822 13.0383C136.013 11.8867 137.751 11.3091 140.036 11.3054C141.373 11.2614 142.702 11.5326 143.919 12.0976C144.952 12.6132 145.785 13.4654 146.285 14.5182C146.869 15.8374 147.145 17.2758 147.092 18.7213C147.092 21.1749 146.484 23.0344 145.267 24.2997C144.051 25.5651 142.307 26.1959 140.036 26.1922ZM140.036 22.8914C140.631 22.9154 141.217 22.7458 141.71 22.4072C142.178 22.0503 142.529 21.5573 142.717 20.9934C142.963 20.259 143.078 19.4859 143.058 18.7103C143.088 17.8802 142.972 17.0512 142.717 16.2622C142.532 15.7303 142.173 15.2795 141.699 14.9858C141.19 14.7037 140.616 14.565 140.036 14.5842C139.446 14.5579 138.861 14.7009 138.347 14.9968C137.885 15.309 137.543 15.7733 137.378 16.3117C137.145 17.0959 137.039 17.9135 137.064 18.7323C136.988 19.8298 137.241 20.925 137.789 21.8736C138.048 22.2233 138.39 22.5009 138.783 22.6807C139.176 22.8605 139.607 22.9368 140.036 22.9024V22.8914Z" fill="white"/>
<path d="M153.925 25.7797H149.875V6.4917H153.958L153.925 25.7797ZM153.053 18.0777L158.122 11.7951H163.049L155.398 19.9977L153.053 18.0777ZM156.134 16.2787L163.412 25.7797H158.262L153.248 19.0569L156.134 16.2787Z" fill="white"/>
<path d="M165.908 9.86953V6.6842H170.105V9.86953H165.908ZM165.989 25.7796V11.9711H170.051L170.078 25.7796H165.989Z" fill="white"/>
<path d="M173.699 12.9668C174.138 12.7495 174.593 12.5656 175.058 12.4167C175.668 12.2111 176.288 12.0403 176.916 11.905C177.587 11.7565 178.258 11.6355 178.941 11.5419C179.569 11.456 180.202 11.4101 180.836 11.4044C181.908 11.3804 182.976 11.5442 183.993 11.8885C184.813 12.1712 185.518 12.7227 185.996 13.4564C186.503 14.3444 186.744 15.3635 186.689 16.3887V25.7961H182.634V17.1864C182.638 16.8572 182.587 16.5296 182.482 16.2181C182.39 15.9325 182.236 15.6713 182.033 15.4535C181.802 15.2253 181.522 15.0556 181.215 14.9583C180.811 14.8285 180.388 14.7672 179.964 14.7768C179.541 14.7768 179.119 14.8285 178.708 14.9308C178.379 14.9993 178.059 15.1064 177.755 15.2499V25.7631H173.699V12.9668Z" fill="white"/>
<path d="M195.57 26.1922C194.434 26.1576 193.322 25.8544 192.321 25.3065C191.412 24.7808 190.681 23.9865 190.226 23.0289C189.685 21.8373 189.427 20.5333 189.473 19.222C189.439 17.9139 189.633 16.61 190.047 15.371C190.365 14.4467 190.913 13.6221 191.639 12.9779C192.359 12.3857 193.204 11.9698 194.108 11.762C195.16 11.5093 196.238 11.3873 197.319 11.3989C198.334 11.3791 199.346 11.5297 200.313 11.8446C201.077 12.0806 201.765 12.5193 202.306 13.1154C202.781 13.6858 203.032 14.4148 203.01 15.1619V25.9557C203.029 26.8402 202.872 27.7195 202.55 28.5414C202.25 29.2752 201.778 29.9231 201.174 30.4283C200.522 30.9577 199.77 31.347 198.965 31.5726C197.996 31.8469 196.993 31.9784 195.987 31.9632C194.941 31.9785 193.897 31.8901 192.868 31.6992C192.181 31.5843 191.515 31.3655 190.892 31.05V27.4246C191.162 27.5346 191.563 27.6831 192.088 27.8647C192.666 28.0622 193.258 28.2148 193.859 28.3213C194.506 28.4414 195.162 28.5022 195.819 28.5028C196.496 28.537 197.172 28.4147 197.795 28.1453C198.219 27.9438 198.562 27.5999 198.765 27.1715C198.952 26.7364 199.044 26.2654 199.035 25.7907V23.5131L199.826 24.0907C199.538 24.5087 199.19 24.8798 198.792 25.191C198.37 25.5172 197.895 25.7667 197.389 25.9282C196.799 26.1083 196.186 26.1973 195.57 26.1922ZM196.604 23.0949C197.046 23.0995 197.486 23.0478 197.915 22.9409C198.313 22.8402 198.698 22.6867 199.057 22.4843V16.0861C199.068 15.9236 199.044 15.7605 198.988 15.6078C198.932 15.4551 198.845 15.3162 198.732 15.2004C198.499 14.9935 198.218 14.8513 197.915 14.7878C197.575 14.7141 197.228 14.6773 196.88 14.6778C196.18 14.634 195.485 14.8275 194.904 15.2279C194.408 15.6155 194.046 16.1529 193.87 16.7628C193.65 17.484 193.544 18.236 193.556 18.9909C193.498 20.0635 193.795 21.125 194.4 22.0057C194.655 22.3532 194.988 22.6335 195.372 22.8231C195.755 23.0126 196.178 23.1059 196.604 23.0949Z" fill="white"/>
<path d="M2.12799 0H94.6443V35H2.12799C1.56362 35 1.02235 34.7722 0.623275 34.3667C0.224199 33.9613 0 33.4114 0 32.8379L0 2.16206C0 1.58864 0.224199 1.03872 0.623275 0.633252C1.02235 0.227787 1.56362 0 2.12799 0V0Z" fill="#DADADA"/>
<path d="M14.3218 26.1922C13.3253 26.2031 12.3315 26.0829 11.3654 25.8346C10.5087 25.6195 9.71207 25.2073 9.03702 24.6298C8.34189 24.0028 7.81309 23.2082 7.49923 22.3192C7.10034 21.1455 6.9168 19.9073 6.95776 18.6663C6.95776 16.3997 7.49923 14.6099 8.58218 13.2969C9.66513 11.9839 11.313 11.3292 13.5258 11.3329C13.8182 11.3329 14.1973 11.3604 14.6738 11.4044C15.1755 11.4558 15.6686 11.5723 16.1412 11.751C16.6663 11.9436 17.1355 12.2671 17.5057 12.6918L16.6718 13.9626V6.01855H20.7004V22.1377C20.7149 22.7758 20.5248 23.4014 20.1589 23.9201C19.7752 24.4483 19.2767 24.8794 18.7023 25.18C18.0619 25.5229 17.3789 25.7764 16.6718 25.9337C15.9 26.1063 15.1121 26.193 14.3218 26.1922ZM14.4843 22.7373C15.0376 22.7603 15.5899 22.6705 16.1087 22.4733C16.2699 22.4154 16.41 22.3093 16.5105 22.1688C16.6111 22.0284 16.6673 21.8602 16.6718 21.6866V15.2334C16.3403 15.0486 15.9874 14.9063 15.6213 14.8098C15.2689 14.7087 14.9046 14.6569 14.5384 14.6558C13.872 14.635 13.2095 14.7666 12.5999 15.0409C12.0616 15.3127 11.6412 15.777 11.4195 16.3447C11.1247 17.1286 10.9902 17.9654 11.0242 18.8038C11.0074 19.5149 11.1175 20.2232 11.3491 20.8944C11.5504 21.4576 11.9317 21.9361 12.4321 22.2532C13.0637 22.6125 13.7833 22.7805 14.5059 22.7373H14.4843Z" fill="#1D1D1B"/>
<path d="M24.3174 9.86953V6.6842H28.5138V9.86953H24.3174ZM24.3986 25.7796V11.9711H28.4597V25.7796H24.3986Z" fill="#1D1D1B"/>
<path d="M37.3941 26.1922C36.258 26.1584 35.1454 25.855 34.1452 25.3065C33.2353 24.7794 32.503 23.9856 32.0443 23.0289C31.5078 21.836 31.252 20.5326 31.2971 19.2219C31.2601 17.9137 31.4545 16.6093 31.871 15.3709C32.1848 14.4446 32.734 13.619 33.463 12.9778C34.1815 12.3858 35.0245 11.9698 35.9267 11.762C36.9804 11.5095 38.0604 11.3876 39.143 11.3989C40.1585 11.3795 41.1701 11.53 42.1374 11.8445C42.9001 12.079 43.5866 12.518 44.1246 13.1153C44.6015 13.6852 44.8541 14.4141 44.8339 15.1618V25.9556C44.8526 26.8401 44.6961 27.7194 44.3737 28.5413C44.0721 29.274 43.6002 29.9215 42.9983 30.4283C42.3443 30.9554 41.5932 31.3445 40.7891 31.5726C39.8181 31.8468 38.8134 31.9784 37.8056 31.9632C36.76 31.9782 35.7154 31.8898 34.6867 31.6991C34.0014 31.5844 33.337 31.3655 32.7157 31.0499V27.4245C32.9865 27.5345 33.3872 27.6831 33.9124 27.8646C34.49 28.0634 35.082 28.2161 35.683 28.3212C36.3297 28.4416 36.9857 28.5024 37.6431 28.5028C38.32 28.5363 38.9956 28.4141 39.6195 28.1452C40.0419 27.9435 40.3825 27.5994 40.5834 27.1714C40.774 26.7373 40.8683 26.2659 40.8595 25.7906V23.513L41.6446 24.0906C41.3585 24.51 41.0095 24.8812 40.6104 25.1909C40.1891 25.5182 39.7144 25.7678 39.208 25.9281C38.6198 26.1078 38.0083 26.1968 37.3941 26.1922ZM38.4283 23.0949C38.8679 23.0998 39.3064 23.0481 39.7332 22.9408C40.1339 22.8402 40.5198 22.6867 40.8812 22.4842V16.0861C40.8912 15.9231 40.8669 15.7598 40.81 15.6071C40.753 15.4543 40.6647 15.3157 40.5509 15.2004C40.3192 14.9915 40.037 14.8491 39.7332 14.7878C39.3933 14.7137 39.0466 14.6768 38.699 14.6777C37.9986 14.6348 37.3038 14.8282 36.7226 15.2279C36.23 15.6185 35.8686 16.1548 35.6884 16.7628C35.4731 17.4848 35.369 18.2364 35.3798 18.9908C35.3225 20.0625 35.6178 21.1232 36.2191 22.0056C36.4743 22.3539 36.8083 22.6347 37.1928 22.8243C37.5773 23.0139 38.001 23.1067 38.4283 23.0949Z" fill="#1D1D1B"/>
<path d="M48.2617 9.86953V6.6842H52.4527V9.86953H48.2617ZM48.3429 25.7796V11.9711H52.4094L52.4365 25.7796H48.3429Z" fill="#1D1D1B"/>
<path d="M61.6902 26.3353C60.0658 26.3353 58.9016 25.9502 58.1219 25.1856C57.7144 24.7563 57.3995 24.2455 57.1972 23.6857C56.9949 23.1259 56.9096 22.5294 56.9469 21.9342V14.9309H54.9326V11.7786H56.9469V7.92761H61.1975V11.7786H64.2189V14.9309H61.1975V21.4061C61.1669 21.7867 61.2727 22.1657 61.4953 22.4733C61.629 22.6009 61.7881 22.6978 61.9619 22.7576C62.1356 22.8174 62.3199 22.8386 62.5024 22.8199C62.8088 22.8144 63.1123 22.7587 63.4013 22.6549C63.6935 22.5595 63.9694 22.4184 64.2189 22.2368V25.7797C63.8315 25.9862 63.4151 26.1309 62.9843 26.2088C62.5576 26.2902 62.1244 26.3326 61.6902 26.3353Z" fill="#1D1D1B"/>
<path d="M72.6122 26.1923C71.8295 26.204 71.0476 26.1359 70.2784 25.9888C69.5941 25.8481 68.9396 25.5855 68.3453 25.2131C67.7911 24.8515 67.3438 24.3438 67.0512 23.7442C66.7211 23.0215 66.5634 22.2298 66.591 21.4336C66.577 20.6434 66.7635 19.8628 67.1324 19.167C67.5021 18.5042 68.0715 17.9796 68.7569 17.6706C69.6245 17.2922 70.5639 17.1137 71.5076 17.148C72.1119 17.1447 72.7148 17.2093 73.3052 17.3405C73.8464 17.454 74.3732 17.6293 74.8755 17.8632C75.2696 18.0476 75.6346 18.2905 75.9585 18.5839L76.1209 20.5754C75.714 20.3361 75.2741 20.16 74.816 20.0527C74.2845 19.9201 73.7388 19.8554 73.1915 19.8602C72.5202 19.8111 71.8484 19.948 71.2476 20.2563C71.0438 20.3916 70.8792 20.5797 70.7707 20.8011C70.6622 21.0225 70.6138 21.2693 70.6304 21.5161C70.6268 21.855 70.7334 22.1857 70.9336 22.4568C71.1384 22.7399 71.4155 22.9605 71.735 23.095C72.0664 23.2415 72.4241 23.3164 72.7854 23.3151C73.4392 23.3482 74.0942 23.2833 74.7293 23.1225C74.893 23.0752 75.0359 22.9725 75.1344 22.8315C75.2329 22.6904 75.281 22.5194 75.2708 22.3468V17.1865C75.3007 16.835 75.2424 16.4816 75.1013 16.1593C74.9602 15.837 74.7409 15.5563 74.464 15.3435C73.7781 14.9307 72.9852 14.7389 72.1898 14.7934C71.3686 14.7975 70.5539 14.9425 69.7802 15.2225C69.0698 15.4567 68.4021 15.808 67.8039 16.2623V12.6093C68.4838 12.2304 69.213 11.9508 69.9698 11.7786C71.0611 11.5069 72.1817 11.3757 73.3052 11.388C73.789 11.3923 74.272 11.429 74.751 11.498C75.2899 11.5777 75.8196 11.7123 76.3321 11.8996C76.8604 12.0981 77.3527 12.3844 77.7886 12.7469C78.2464 13.1304 78.6161 13.6111 78.8716 14.1552C79.1623 14.8269 79.3011 15.5563 79.2777 16.2898V22.8915C79.291 23.2506 79.2272 23.6084 79.0907 23.94C78.9541 24.2715 78.7482 24.5689 78.4872 24.8114C77.8345 25.364 77.0501 25.7321 76.213 25.8787C75.0271 26.113 73.82 26.2181 72.6122 26.1923Z" fill="#1D1D1B"/>
<path d="M86.9065 25.7797H82.8779V6.4917H86.9065V25.7797Z" fill="#1D1D1B"/>
</g>
<defs>
<clipPath id="clip0_287_3116">
<rect width="210" height="35" fill="white"/>
</clipPath>
</defs>
</svg>
